<svg width="173" height="69" viewBox="0 0 173 69" fill="none" xmlns="http://www.w3.org/2000/svg">
<g filter="url(#filter0_d_5:8)">
<path d="M9 47.5L34.5 29L56 47.5L80 29L100.5 47.5L121.5 29L146 47.5L164 29" stroke="#54F5FF" stroke-width="3" stroke-linecap="round" stroke-linejoin="round"/>
<path d="M9 25.5L34.5 7L56 25.5L80 7L100.5 25.5L121.5 7L146 25.5L164 7" stroke="#54F5FF" stroke-width="3" stroke-linecap="round" stroke-linejoin="round"/>
<path d="M9 58.5L34.5 40L56 58.5L80 40L100.5 58.5L121.5 40L146 58.5L164 40" stroke="#54F5FF" stroke-width="3" stroke-linecap="round" stroke-linejoin="round"/>
<path d="M9 36.5L34.5 18L56 36.5L80 18L100.5 36.5L121.5 18L146 36.5L164 18" stroke="#54F5FF" stroke-width="3" stroke-linecap="round" stroke-linejoin="round"/>
</g>
<defs>
<filter id="filter0_d_5:8" x="0.499893" y="0.499992" width="172" height="68.5001" filterUnits="userSpaceOnUse" color-interpolation-filters="sRGB">
<feFlood flood-opacity="0" result="BackgroundImageFix"/>
<feColorMatrix in="SourceAlpha" type="matrix" values="0 0 0 0 0 0 0 0 0 0 0 0 0 0 0 0 0 0 127 0" result="hardAlpha"/>
<feOffset dy="2"/>
<feGaussianBlur stdDeviation="3.5"/>
<feComposite in2="hardAlpha" operator="out"/>
<feColorMatrix type="matrix" values="0 0 0 0 0.275 0 0 0 0 0.275 0 0 0 0 0.275 0 0 0 1 0"/>
<feBlend mode="normal" in2="BackgroundImageFix" result="effect1_dropShadow_5:8"/>
<feBlend mode="normal" in="SourceGraphic" in2="effect1_dropShadow_5:8" result="shape"/>
</filter>
</defs>
</svg>
