<svg width="171" height="67" viewBox="0 0 171 67" fill="none" xmlns="http://www.w3.org/2000/svg">
<g filter="url(#filter0_d_5:7)">
<path d="M8 44.5L33.5 26L55 44.5L79 26L99.5 44.5L120.5 26L145 44.5L163 26" stroke="#F4F5AB" stroke-width="3" stroke-linecap="round" stroke-linejoin="round"/>
<path d="M8 22.5L33.5 4L55 22.5L79 4L99.5 22.5L120.5 4L145 22.5L163 4" stroke="#F4F5AB" stroke-width="3" stroke-linecap="round" stroke-linejoin="round"/>
<path d="M8 55.5L33.5 37L55 55.5L79 37L99.5 55.5L120.5 37L145 55.5L163 37" stroke="#F4F5AB" stroke-width="3" stroke-linecap="round" stroke-linejoin="round"/>
<path d="M8 33.5L33.5 15L55 33.5L79 15L99.5 33.5L120.5 15L145 33.5L163 15" stroke="#F4F5AB" stroke-width="3" stroke-linecap="round" stroke-linejoin="round"/>
</g>
<defs>
<filter id="filter0_d_5:7" x="0.499893" y="0.499996" width="170" height="66.5001" filterUnits="userSpaceOnUse" color-interpolation-filters="sRGB">
<feFlood flood-opacity="0" result="BackgroundImageFix"/>
<feColorMatrix in="SourceAlpha" type="matrix" values="0 0 0 0 0 0 0 0 0 0 0 0 0 0 0 0 0 0 127 0" result="hardAlpha"/>
<feOffset dy="4"/>
<feGaussianBlur stdDeviation="3"/>
<feComposite in2="hardAlpha" operator="out"/>
<feColorMatrix type="matrix" values="0 0 0 0 0 0 0 0 0 0 0 0 0 0 0 0 0 0 0.25 0"/>
<feBlend mode="normal" in2="BackgroundImageFix" result="effect1_dropShadow_5:7"/>
<feBlend mode="normal" in="SourceGraphic" in2="effect1_dropShadow_5:7" result="shape"/>
</filter>
</defs>
</svg>
