<svg width="212" height="78" viewBox="0 0 212 78" fill="none" xmlns="http://www.w3.org/2000/svg">
<g filter="url(#filter0_d_5:8)">
<path d="M6 54.2581L38.9032 30.3871L66.6452 54.2581L97.6129 30.3871L124.065 54.2581L151.161 30.3871L182.774 54.2581L206 30.3871" stroke="#FF7D5C" stroke-width="3" stroke-linecap="round" stroke-linejoin="round"/>
<path d="M6 25.871L38.9032 2L66.6452 25.871L97.6129 2L124.065 25.871L151.161 2L182.774 25.871L206 2" stroke="#FF7D5C" stroke-width="3" stroke-linecap="round" stroke-linejoin="round"/>
<path d="M6 68.4516L38.9032 44.5806L66.6452 68.4516L97.6129 44.5806L124.065 68.4516L151.161 44.5806L182.774 68.4516L206 44.5806" stroke="#FF7D5C" stroke-width="3" stroke-linecap="round" stroke-linejoin="round"/>
<path d="M6 40.0645L38.9032 16.1936L66.6452 40.0645L97.6129 16.1936L124.065 40.0645L151.161 16.1936L182.774 40.0645L206 16.1936" stroke="#FF7D5C" stroke-width="3" stroke-linecap="round" stroke-linejoin="round"/>
</g>
<defs>
<filter id="filter0_d_5:8" x="0.499893" y="0.499992" width="211" height="77.4517" filterUnits="userSpaceOnUse" color-interpolation-filters="sRGB">
<feFlood flood-opacity="0" result="BackgroundImageFix"/>
<feColorMatrix in="SourceAlpha" type="matrix" values="0 0 0 0 0 0 0 0 0 0 0 0 0 0 0 0 0 0 127 0" result="hardAlpha"/>
<feOffset dy="4"/>
<feGaussianBlur stdDeviation="2"/>
<feComposite in2="hardAlpha" operator="out"/>
<feColorMatrix type="matrix" values="0 0 0 0 1 0 0 0 0 1 0 0 0 0 1 0 0 0 1 0"/>
<feBlend mode="normal" in2="BackgroundImageFix" result="effect1_dropShadow_5:8"/>
<feBlend mode="normal" in="SourceGraphic" in2="effect1_dropShadow_5:8" result="shape"/>
</filter>
</defs>
</svg>
