<svg width="272" height="125" viewBox="0 0 272 125" fill="none" xmlns="http://www.w3.org/2000/svg">
<path d="M2 30L33.5 5L60 30L99 5L115 30L156.5 5L174.5 30L219.5 5L238 30L270 5" stroke="#72896F" stroke-width="6"/>
<path d="M2 120L33.5 95L60 120L99 95L115 120L156.5 95L174.5 120L219.5 95L238 120L270 95" stroke="#72896F" stroke-width="6"/>
<path d="M2 90L33.5 65L60 90L99 65L115 90L156.5 65L174.5 90L219.5 65L238 90L270 65" stroke="#72896F" stroke-width="6"/>
<path d="M2 60L33.5 35L60 60L99 35L115 60L156.5 35L174.5 60L219.5 35L238 60L270 35" stroke="#72896F" stroke-width="6"/>
</svg>
